<?xml version="1.0" standalone="no"?>
<!DOCTYPE svg PUBLIC "-//W3C//DTD SVG 20010904//EN"
 "http://www.w3.org/TR/2001/REC-SVG-20010904/DTD/svg10.dtd">
<svg version="1.0" xmlns="http://www.w3.org/2000/svg"
 width="1920.000000pt" height="1920.000000pt" viewBox="0 0 1920.000000 1920.000000"
 preserveAspectRatio="xMidYMid meet">
<metadata>
Created by potrace 1.11, written by Peter Selinger 2001-2013
</metadata>
<g transform="translate(0.000000,1920.000000) scale(0.100000,-0.100000)"
fill="#000000" stroke="none">
<path d="M9228 19195 c-1 -2 -64 -6 -138 -9 -74 -4 -153 -8 -175 -10 -22 -3
-84 -7 -138 -11 -54 -3 -106 -8 -115 -10 -9 -1 -53 -6 -96 -10 -43 -4 -86 -8
-95 -10 -9 -1 -41 -6 -71 -9 -125 -16 -342 -48 -450 -67 -164 -30 -158 -29
-235 -44 -38 -8 -81 -16 -95 -19 -59 -11 -178 -38 -215 -48 -22 -5 -48 -12
-57 -14 -42 -9 -58 -13 -153 -38 -55 -15 -108 -29 -118 -31 -194 -45 -877
-275 -1072 -360 -16 -7 -109 -47 -205 -88 -363 -156 -680 -315 -1005 -505 -60
-35 -123 -72 -140 -82 -355 -205 -899 -596 -1265 -909 -238 -203 -300 -260
-570 -531 -292 -291 -536 -560 -690 -760 -19 -25 -40 -51 -47 -58 -23 -24
-280 -369 -359 -482 -126 -179 -347 -524 -404 -627 -8 -16 -35 -63 -60 -107
-101 -175 -136 -242 -253 -476 -122 -246 -141 -286 -225 -480 -24 -58 -51
-119 -59 -137 -28 -66 -112 -282 -148 -383 -20 -58 -41 -114 -45 -125 -9 -23
-16 -41 -72 -215 -70 -217 -160 -539 -174 -620 -3 -19 -8 -38 -11 -42 -2 -5
-6 -16 -8 -25 -2 -10 -19 -88 -38 -173 -38 -167 -86 -422 -112 -590 -16 -102
-19 -123 -29 -205 -3 -22 -8 -56 -11 -75 -2 -19 -7 -57 -10 -85 -7 -73 -16
-155 -21 -195 -3 -19 -7 -69 -10 -111 -3 -43 -7 -94 -9 -115 -26 -258 -26
-1269 0 -1399 3 -11 7 -63 10 -115 3 -52 7 -106 9 -120 2 -14 7 -57 10 -95 4
-39 8 -81 10 -95 5 -25 17 -125 21 -170 5 -46 16 -114 41 -265 14 -82 27 -163
29 -179 3 -15 7 -35 9 -45 3 -9 8 -32 11 -51 3 -19 8 -48 12 -65 3 -16 7 -37
8 -45 12 -89 146 -617 206 -815 37 -123 170 -524 180 -545 4 -8 33 -82 64
-165 32 -82 63 -163 71 -180 7 -16 41 -95 75 -175 154 -361 362 -763 603
-1165 174 -292 498 -753 713 -1017 37 -46 84 -104 103 -128 19 -24 40 -48 45
-54 6 -6 39 -45 75 -86 36 -41 70 -80 75 -86 56 -65 215 -235 320 -342 193
-198 306 -306 519 -497 133 -119 387 -328 536 -440 36 -27 70 -53 75 -58 27
-21 221 -161 309 -221 54 -37 111 -76 125 -85 47 -33 195 -127 291 -186 385
-236 817 -461 1200 -624 80 -34 159 -68 175 -75 17 -8 98 -39 180 -71 83 -31
157 -60 165 -64 21 -10 422 -143 545 -180 197 -60 724 -193 815 -206 8 -1 40
-7 70 -13 30 -6 69 -14 85 -17 80 -14 273 -46 300 -51 17 -2 41 -6 55 -9 14
-2 45 -7 70 -10 25 -3 56 -8 70 -10 14 -2 54 -7 90 -11 36 -3 73 -8 82 -9 9
-2 48 -7 85 -10 37 -4 79 -8 93 -10 14 -2 66 -7 115 -10 50 -4 113 -8 140 -11
201 -15 328 -19 680 -18 357 0 591 6 710 19 22 2 76 7 120 10 44 4 94 8 110
10 17 2 57 7 90 10 33 3 76 7 95 10 19 2 60 7 91 10 31 3 66 8 78 10 12 2 59
9 104 15 45 7 118 18 162 26 44 7 94 16 110 19 17 3 50 8 75 11 25 3 48 8 51
10 3 2 21 6 40 9 139 23 454 97 724 169 295 79 781 243 1040 351 96 40 290
123 375 161 92 41 540 265 631 316 198 111 242 136 349 201 191 115 505 321
647 425 198 145 518 395 588 459 11 10 54 47 95 82 203 172 658 617 841 821
95 106 303 350 349 410 19 25 40 51 47 58 23 24 280 369 359 482 118 168 321
482 394 610 5 8 31 53 58 100 27 47 67 119 89 160 22 41 56 104 75 140 110
204 215 425 325 680 41 96 81 189 88 205 81 184 316 881 360 1072 2 10 16 63
31 118 25 95 29 111 38 153 2 9 9 35 14 57 10 36 35 150 48 215 3 14 14 68 24
120 11 52 22 111 25 130 3 19 8 46 10 60 10 49 13 66 19 115 4 28 9 57 11 65
2 8 6 38 10 65 3 28 10 75 15 105 5 30 12 82 15 115 4 33 8 71 10 84 3 14 7
54 10 90 3 36 8 77 10 91 2 14 7 70 11 125 3 55 8 108 10 117 25 139 25 1218
-1 1393 -3 17 -7 71 -10 120 -3 50 -7 101 -9 115 -3 14 -7 57 -10 95 -4 39 -8
81 -10 95 -5 25 -17 125 -21 170 -7 63 -71 460 -80 490 -3 8 -7 33 -11 55 -3
22 -10 60 -16 85 -6 25 -12 54 -13 65 -2 11 -9 43 -15 70 -6 28 -14 61 -16 75
-3 14 -23 97 -45 185 -23 88 -42 168 -44 178 -2 10 -9 32 -15 50 -5 18 -26 88
-45 155 -68 242 -250 770 -290 844 -8 14 -15 31 -15 37 0 6 -13 40 -30 76 -16
36 -30 68 -30 70 0 31 -338 731 -429 888 -28 49 -51 90 -51 93 0 11 -254 426
-353 576 -138 209 -435 621 -467 648 -3 3 -39 48 -80 100 -71 90 -103 129
-125 154 -5 6 -39 45 -75 86 -36 41 -69 80 -75 86 -150 172 -481 512 -659 675
-32 30 -70 65 -85 79 -14 14 -60 54 -101 90 -41 36 -77 67 -80 70 -37 37 -429
354 -511 413 -13 9 -70 51 -127 92 -142 104 -443 306 -587 395 -123 75 -335
200 -341 200 -1 0 -42 23 -91 51 -157 91 -857 429 -888 429 -2 0 -34 14 -70
30 -36 17 -70 30 -76 30 -6 0 -23 7 -37 15 -37 20 -489 185 -522 190 -3 0 -48
15 -100 32 -150 49 -493 148 -583 168 -12 2 -62 14 -112 26 -49 11 -97 22
-106 24 -9 2 -81 17 -160 34 -79 17 -157 33 -174 36 -144 25 -275 47 -300 51
-16 2 -41 7 -55 9 -14 3 -43 7 -65 10 -22 2 -56 7 -75 9 -19 3 -60 8 -90 11
-30 4 -66 8 -80 10 -14 2 -50 6 -80 10 -155 16 -197 20 -350 30 -52 3 -113 8
-135 11 -45 5 -921 14 -927 9z"/>
</g>
</svg>
