<?xml version="1.0" standalone="no"?>
<!DOCTYPE svg PUBLIC "-//W3C//DTD SVG 20010904//EN"
 "http://www.w3.org/TR/2001/REC-SVG-20010904/DTD/svg10.dtd">
<svg version="1.0" xmlns="http://www.w3.org/2000/svg"
 width="1440.000000pt" height="1440.000000pt" viewBox="0 0 1440.000000 1440.000000"
 preserveAspectRatio="xMidYMid meet">
<metadata>
Created by potrace 1.11, written by Peter Selinger 2001-2013
</metadata>
<g transform="translate(0.000000,1440.000000) scale(0.100000,-0.100000)"
fill="#000000" stroke="none">
<path d="M6868 14395 c-1 -1 -56 -6 -120 -9 -64 -4 -132 -9 -150 -11 -18 -2
-67 -6 -108 -10 -79 -6 -307 -34 -405 -50 -16 -3 -41 -7 -55 -9 -167 -26 -446
-87 -740 -161 -73 -18 -237 -70 -390 -122 -222 -76 -201 -68 -225 -78 -202
-79 -271 -107 -385 -157 -433 -191 -867 -439 -1267 -723 -76 -54 -142 -102
-148 -107 -5 -5 -48 -38 -95 -74 -47 -36 -103 -81 -125 -99 -80 -66 -124 -103
-138 -116 -8 -8 -41 -36 -73 -64 -145 -124 -425 -399 -569 -559 -44 -49 -91
-101 -104 -115 -12 -14 -39 -46 -60 -70 -20 -25 -59 -72 -87 -105 -254 -305
-531 -716 -753 -1119 -108 -196 -302 -611 -365 -782 -15 -38 -30 -79 -36 -90
-13 -28 -108 -299 -125 -355 -2 -8 -21 -69 -41 -135 -72 -240 -151 -568 -188
-780 -9 -49 -18 -101 -20 -115 -34 -192 -68 -499 -83 -730 -15 -242 -8 -883
12 -1050 2 -19 6 -66 9 -103 7 -85 33 -301 47 -382 9 -58 43 -250 54 -310 3
-16 10 -50 15 -75 10 -43 16 -68 26 -118 3 -13 14 -60 25 -105 11 -45 22 -89
23 -97 20 -85 118 -425 133 -460 3 -8 7 -19 8 -25 7 -27 110 -306 130 -352 13
-29 22 -53 20 -53 -2 0 7 -24 20 -53 12 -28 47 -106 75 -172 62 -141 197 -415
283 -570 85 -155 268 -456 309 -510 5 -5 29 -41 55 -80 42 -64 248 -344 286
-391 9 -10 49 -59 89 -109 40 -49 78 -94 84 -100 6 -5 35 -39 65 -75 116 -138
436 -465 574 -587 39 -33 88 -77 110 -97 83 -76 385 -316 505 -403 228 -164
527 -357 700 -450 30 -17 73 -41 95 -53 149 -85 713 -350 755 -355 3 0 54 -20
115 -44 128 -51 412 -146 569 -191 166 -48 515 -133 601 -146 17 -3 39 -6 50
-9 11 -2 63 -11 115 -20 52 -8 106 -18 120 -20 53 -9 177 -26 225 -31 28 -3
61 -7 75 -9 14 -3 61 -7 105 -11 44 -3 91 -7 104 -9 163 -26 978 -26 1203 0
18 2 67 6 108 10 64 5 155 16 345 41 22 3 78 12 125 20 47 8 99 17 115 20 85
13 210 40 395 85 113 28 212 52 220 54 115 27 475 146 682 225 236 91 658 286
838 387 19 11 69 39 110 62 41 23 82 46 90 51 8 5 65 40 125 76 279 170 651
436 852 610 11 11 38 33 60 50 21 18 50 42 64 55 14 13 66 60 115 104 158 142
435 424 559 569 28 32 57 66 66 75 8 9 37 43 65 76 27 33 52 62 55 65 22 18
303 401 385 525 137 205 335 530 324 530 -2 0 9 20 25 45 70 112 271 537 357
755 21 55 43 109 48 120 14 31 94 260 128 365 92 290 189 679 228 920 3 19 9
53 14 75 5 22 14 78 20 125 6 47 13 96 15 110 10 67 25 192 30 255 3 39 8 88
10 110 27 242 27 1040 0 1207 -2 13 -6 59 -10 103 -5 69 -16 160 -41 345 -3
25 -17 108 -31 185 -13 77 -26 154 -29 170 -36 206 -197 797 -264 970 -4 11
-16 45 -28 75 -43 119 -85 227 -103 267 -11 24 -19 45 -19 48 0 27 -268 584
-339 703 -17 29 -31 55 -31 57 0 11 -192 323 -283 460 -150 227 -472 648 -581
761 -6 6 -45 49 -86 95 -119 133 -413 424 -555 548 -351 308 -705 566 -1093
799 -83 51 -154 92 -157 92 -2 0 -28 14 -57 31 -119 71 -676 339 -703 339 -3
0 -24 8 -48 19 -23 10 -80 33 -127 51 -47 18 -105 40 -130 50 -217 86 -854
263 -1065 296 -16 3 -39 6 -50 9 -11 2 -63 11 -115 20 -52 8 -106 18 -120 20
-33 6 -178 27 -210 30 -14 1 -52 5 -85 9 -98 12 -126 14 -210 21 -44 3 -102 8
-130 11 -57 6 -801 14 -807 9z"/>
</g>
</svg>
